{"title":"Sicario.2015.HC.HDTS.READNFO.x264-MenaceIISociety","uid":12543355,"size":1077773446,"categoryP":"video","categoryS":"movies","magnet":"?xt=urn:btih:1f196ae51135e50d0acc92c6416f93c225f575e5&amp;dn=Sicario.2015.HC.HDTS.READNFO.x264-MenaceIISociety&amp;tr=udp%3A%2F%2Ftracker.leechers-paradise.org%3A6969&amp;tr=udp%3A%2F%2Fzer0day.ch%3A1337&amp;tr=udp%3A%2F%2Fopen.demonii.com%3A1337&amp;tr=udp%3A%2F%2Ftracker.coppersurfer.tk%3A6969&amp;tr=udp%3A%2F%2Fexodus.desync.com%3A6969","seeders":0,"leechers":0,"uploader":"TvTeam","files":5,"time":1444432363,"description":"------------------------------------------------------------------------\r\n\r  https://www.torrenting.com\r\n\r\nSign up is OPEN - for time being. Come and have fun.\r\n\r\nSicario.2015.HC.HDTS.READNFO.x264-MenaceIISociety \nhttp://www.imdb.com/title/tt3397884/\n\nSource:  Video - iNCOMiNG 720p / Audio - Hive-CM8 / Subs - The Web [THANKS]\n\nNOTE:  this is from the proper 720p sourcefile not some reencode, thnx for the share bro :) so cut the video in 2 halfs made the keyframe cut at 50:44 in, the 1st part i cropped 174px off the bottom which gave a res of 1280 x 544 (4:3) to lose the main bulk of the persons head, then added borders top/bottom to keep the AR on point @ (16:9), the 2nd half you rarely see a head and if so its just a little bit in the left corner now and again it doesnt bother me, which is full picture in the 2nd half, no crops then applied some adjustments to gain, sat, gamma, slight deblock to remove some artifacts and moved some levels, also hardcoded english subs for foreign parts only, which no one has done yet then i stuck Hive's Audio onto it, Enjoy.\n\nGeneral\nComplete name                            : Sicario.2015.HC.HDTS.READNFO.x264-MenaceIISociety.mp4\nFormat                                   : MPEG-4\nFormat profile                           : Base Media\nCodec ID                                 : isom\nFile size                                : 991 MiB\nDuration                                 : 1h 55mn\nOverall bit rate mode                    : Variable\nOverall bit rate                         : 1 199 Kbps\nEncoded date                             : UTC 2015-10-09 16:36:48\nTagged date                              : UTC 2015-10-09 16:36:48\n\nVideo\nID                                       : 1\nFormat                                   : AVC\nFormat/Info                              : Advanced Video Codec\nFormat profile                           :   \nFormat settings, CABAC                   : Yes\nFormat settings, ReFrames                : 3 frames\nCodec ID                                 : avc1\nCodec ID/Info                            : Advanced Video Coding\nDuration                                 : 1h 55mn\nBit rate mode                            : Variable\nBit rate                                 : 1 064 Kbps\nMaximum bit rate                         : 40.0 Mbps\nWidth                                    : 720 pixels\nHeight                                   : 400 pixels\nDisplay aspect ratio                     : 16:9\nFrame rate mode                          : Constant\nFrame rate                               : 29.970 fps\nColor space                              : YUV\nChroma subsampling                       : 4:2:0\nBit depth                                : 8 bits\nScan type                                : Progressive\nBits/(Pixel*Frame)                       : 0.123\nStream size                              : 879 MiB (89%)\nWriting library                          : x264 core 148 r2597 e86f3a1\n\nAudio\nID                                       : 2\nFormat                                   : AAC\nFormat/Info                              : Advanced Audio Codec\nFormat profile                           : LC\nCodec ID                                 : 40\nDuration                                 : 1h 55mn\nBit rate mode                            : Variable\nBit rate                                 : 132 Kbps\nMaximum bit rate                         : 145 Kbps\nChannel(s)                               : 2 channels\nChannel positions                        : Front: L R\nSampling rate                            : 48.0 KHz\nCompression mode                         : Lossy\nStream size                              : 107 MiB (11%)\nLanguage                                 : English\nEncoded date                             : UTC 2015-10-09 14:36:58\nTagged date                              : UTC 2015-10-09 16:38:11\n\nSubtitles: Hardcoded for foreign parts only\n\n[img]http://s13.postimg.org/40jy9tzs7/image.jpg[/img] \n[img]http://s13.postimg.org/s6ulkylwn/image.jpg[/img] \n[img]http://s13.postimg.org/yw150z78n/image.jpg[/img] \n[img]http://s12.postimg.org/x4zveypvx/vlcsnap_2015_10_09_19h53m38s704.jpg[/img] \n[img]http://s12.postimg.org/j67rg8pzh/vlcsnap_2015_10_09_19h55m09s549.jpg[/img] \n[img]http://s12.postimg.org/xf7dyb4i5/vlcsnap_2015_10_09_19h56m20s797.jpg[/img] \n[img]http://s12.postimg.org/yiria9p59/vlcsnap_2015_10_09_19h58m52s390.jpg[/img] \n[img]http://s12.postimg.org/x69t8drpp/vlcsnap_2015_10_09_19h59m16s473.jpg[/img] \n[img]http://s12.postimg.org/h2xc8kq6l/vlcsnap_2015_10_09_20h00m50s253.jpg[/img] \n \n[img]http://s17.postimg.org/r1iiyw8yn/Untitled_1.png[/img][/center]","torrent":{"xt":"urn:btih:1f196ae51135e50d0acc92c6416f93c225f575e5","amp;dn":"Sicario.2015.HC.HDTS.READNFO.x264-MenaceIISociety","amp;tr":["udp%3A%2F%2Ftracker.leechers-paradise.org%3A6969","udp%3A%2F%2Fzer0day.ch%3A1337","udp%3A%2F%2Fopen.demonii.com%3A1337","udp%3A%2F%2Ftracker.coppersurfer.tk%3A6969","udp%3A%2F%2Fexodus.desync.com%3A6969"],"infoHash":"1f196ae51135e50d0acc92c6416f93c225f575e5","infoHashBuffer":{"type":"Buffer","data":[31,25,106,229,17,53,229,13,10,204,146,198,65,111,147,194,37,245,117,229]},"announce":[],"urlList":[]}}